# xmcd
#
# Track frame offsets: 
#        150
#        5782
#        21269
#        36458
#        60649
#        67478
#        84051
#        102648
#        116484
#        128922
#        142924
#        159617
#        175803
#        187479
#        208177
#        216102
#        237552
#        243297
#
# Disc length: 3463 seconds
#
# Revision: 0
# Processed by: cddbd v1.5.2PL0 Copyright (c) Steve Scherf et al.
# Submitted via: ExactAudioCopyFreeDBPlugin 1.0
#
DISCID=150d8512
DTITLE=Iris DeMent - The Trackless Woods
DYEAR=2015
DGENRE=Country
TTITLE0=To My Poem
TTITLE1=Broad Gold
TTITLE2=And This You Call Work
TTITLE3=From The Oriental Notebook
TTITLE4=Prayer
TTITLE5=Not With Deserters
TTITLE6=All Is Sold
TTITLE7=Reject The Burden
TTITLE8=From An Airplane
TTITLE9=Oh, How Good
TTITLE10=Like A White Stone
TTITLE11=Song About Songs
TTITLE12=Listening To Singing
TTITLE13=Lot's Wife
TTITLE14=Upon The Hard Crest
TTITLE15=The Souls Of All My Dear
TTITLE16=The Last Toast
TTITLE17=Not With A Lover's Lyre - Anna Akhmatova's Recitation Of 'The
TTITLE17=Muse'
EXTD=
EXTT0=
EXTT1=
EXTT2=
EXTT3=
EXTT4=
EXTT5=
EXTT6=
EXTT7=
EXTT8=
EXTT9=
EXTT10=
EXTT11=
EXTT12=
EXTT13=
EXTT14=
EXTT15=
EXTT16=
EXTT17=
PLAYORDER=
